<svg xmlns="http://www.w3.org/2000/svg" xmlns:xlink="http://www.w3.org/1999/xlink" width="1366" zoomAndPan="magnify" viewBox="0 0 1024.5 576" height="768" preserveAspectRatio="xMidYMid meet" version="1.0"><defs><g/><clipPath id="0281d77251"><path d="M 557.15625 107.628906 L 639.839844 107.628906 L 639.839844 378.925781 L 557.15625 378.925781 Z M 557.15625 107.628906 " clip-rule="nonzero"/></clipPath><clipPath id="51e590ef15"><path d="M 639.839844 135.1875 L 639.839844 378.75 L 557.15625 351.191406 L 557.15625 107.628906 Z M 639.839844 135.1875 " clip-rule="nonzero"/></clipPath><clipPath id="fc10e7e2ad"><path d="M 488.03125 107.621094 L 557.164062 107.621094 L 557.164062 185.394531 L 488.03125 185.394531 Z M 488.03125 107.621094 " clip-rule="nonzero"/></clipPath><clipPath id="c6bc392814"><path d="M 488.03125 130.671875 L 488.03125 185.394531 L 557.164062 162.351562 L 557.164062 107.628906 Z M 488.03125 130.671875 " clip-rule="nonzero"/></clipPath><clipPath id="8957bf25b7"><path d="M 456.835938 174.523438 L 516.160156 174.523438 L 516.160156 337.191406 L 456.835938 337.191406 Z M 456.835938 174.523438 " clip-rule="nonzero"/></clipPath><clipPath id="77ade470ba"><path d="M 516.160156 194.296875 L 516.160156 337.089844 L 456.835938 317.316406 L 456.835938 174.523438 Z M 516.160156 194.296875 " clip-rule="nonzero"/></clipPath><clipPath id="af91b62d09"><path d="M 410.105469 174.382812 L 456.839844 174.382812 L 456.839844 288.296875 L 410.105469 288.296875 Z M 410.105469 174.382812 " clip-rule="nonzero"/></clipPath><clipPath id="0dc62153fe"><path d="M 410.105469 190.09375 L 410.105469 288.296875 L 456.839844 272.71875 L 456.839844 174.515625 Z M 410.105469 190.09375 " clip-rule="nonzero"/></clipPath></defs><g clip-path="url(#0281d77251)"><g clip-path="url(#51e590ef15)"><path fill="#ffffff" d="M 639.839844 107.628906 L 639.839844 378.605469 L 557.15625 378.605469 L 557.15625 107.628906 Z M 639.839844 107.628906 " fill-opacity="1" fill-rule="nonzero"/></g></g><g clip-path="url(#fc10e7e2ad)"><g clip-path="url(#c6bc392814)"><path fill="#ffffff" d="M 488.03125 185.394531 L 488.03125 107.621094 L 557.164062 107.621094 L 557.164062 185.394531 Z M 488.03125 185.394531 " fill-opacity="1" fill-rule="nonzero"/></g></g><g clip-path="url(#8957bf25b7)"><g clip-path="url(#77ade470ba)"><path fill="#ffffff" d="M 516.160156 174.523438 L 516.160156 337.191406 L 456.835938 337.191406 L 456.835938 174.523438 Z M 516.160156 174.523438 " fill-opacity="1" fill-rule="nonzero"/></g></g><g clip-path="url(#af91b62d09)"><g clip-path="url(#0dc62153fe)"><path fill="#ffffff" d="M 410.105469 288.296875 L 410.105469 174.566406 L 456.839844 174.566406 L 456.839844 288.296875 Z M 410.105469 288.296875 " fill-opacity="1" fill-rule="nonzero"/></g></g><g fill="#ffffff" fill-opacity="1"><g transform="translate(365.192436, 432.267197)"><g><path d="M 32.671875 -12.078125 C 33.210938 -11.953125 33.546875 -11.679688 33.671875 -11.265625 C 33.796875 -10.847656 33.835938 -10.285156 33.796875 -9.578125 C 33.710938 -7.953125 33.585938 -6.570312 33.421875 -5.4375 C 33.253906 -4.3125 33.046875 -3.289062 32.796875 -2.375 C 32.585938 -1.582031 32.164062 -0.988281 31.53125 -0.59375 C 30.90625 -0.195312 29.613281 0 27.65625 0 L 5.5625 0 C 4.394531 0 3.550781 -0.09375 3.03125 -0.28125 C 2.507812 -0.46875 2.25 -0.875 2.25 -1.5 C 2.25 -2.207031 2.445312 -2.6875 2.84375 -2.9375 C 3.238281 -3.1875 3.695312 -3.46875 4.21875 -3.78125 C 4.738281 -4.09375 5.195312 -4.664062 5.59375 -5.5 C 5.988281 -6.34375 6.1875 -7.703125 6.1875 -9.578125 L 6.1875 -34.046875 C 6.1875 -35.878906 6 -37.222656 5.625 -38.078125 C 5.25 -38.929688 4.800781 -39.535156 4.28125 -39.890625 C 3.757812 -40.242188 3.3125 -40.566406 2.9375 -40.859375 C 2.5625 -41.148438 2.375 -41.628906 2.375 -42.296875 C 2.375 -42.878906 2.625 -43.273438 3.125 -43.484375 C 3.625 -43.703125 4.476562 -43.8125 5.6875 -43.8125 L 14.078125 -43.8125 C 16.285156 -43.8125 17.390625 -43.304688 17.390625 -42.296875 C 17.390625 -41.628906 17.191406 -41.148438 16.796875 -40.859375 C 16.398438 -40.566406 15.941406 -40.242188 15.421875 -39.890625 C 14.898438 -39.535156 14.441406 -38.929688 14.046875 -38.078125 C 13.648438 -37.222656 13.453125 -35.878906 13.453125 -34.046875 L 13.453125 -6.390625 C 13.453125 -5.335938 13.773438 -4.570312 14.421875 -4.09375 C 15.066406 -3.613281 16.472656 -3.375 18.640625 -3.375 L 22.03125 -3.4375 C 23.65625 -3.4375 24.9375 -3.664062 25.875 -4.125 C 26.8125 -4.582031 27.570312 -5.269531 28.15625 -6.1875 C 28.738281 -7.113281 29.34375 -8.265625 29.96875 -9.640625 C 30.46875 -10.722656 30.925781 -11.421875 31.34375 -11.734375 C 31.769531 -12.046875 32.210938 -12.160156 32.671875 -12.078125 Z M 32.671875 -12.078125 "/></g></g></g><g fill="#ffffff" fill-opacity="1"><g transform="translate(400.425223, 432.267197)"><g><path d="M 10.640625 -11.015625 L 9.328125 -7.703125 C 8.828125 -6.441406 8.628906 -5.5 8.734375 -4.875 C 8.835938 -4.25 9.054688 -3.789062 9.390625 -3.5 C 9.722656 -3.207031 10.054688 -2.925781 10.390625 -2.65625 C 10.722656 -2.382812 10.890625 -2 10.890625 -1.5 C 10.890625 -0.914062 10.640625 -0.519531 10.140625 -0.3125 C 9.640625 -0.101562 9.035156 0 8.328125 0 L 2.9375 0 C 2.0625 0 1.363281 -0.101562 0.84375 -0.3125 C 0.320312 -0.519531 0.0625 -0.894531 0.0625 -1.4375 C 0.0625 -1.976562 0.238281 -2.382812 0.59375 -2.65625 C 0.945312 -2.925781 1.394531 -3.207031 1.9375 -3.5 C 2.476562 -3.789062 3.039062 -4.25 3.625 -4.875 C 4.207031 -5.5 4.75 -6.441406 5.25 -7.703125 L 16.765625 -36.734375 C 17.140625 -37.691406 17.242188 -38.421875 17.078125 -38.921875 C 16.910156 -39.421875 16.640625 -39.816406 16.265625 -40.109375 C 15.890625 -40.398438 15.523438 -40.703125 15.171875 -41.015625 C 14.816406 -41.328125 14.640625 -41.753906 14.640625 -42.296875 C 14.640625 -43.304688 15.265625 -43.8125 16.515625 -43.8125 L 22.90625 -43.8125 C 23.863281 -43.8125 24.53125 -43.347656 24.90625 -42.421875 L 38.546875 -7.828125 C 39.046875 -6.523438 39.566406 -5.5625 40.109375 -4.9375 C 40.648438 -4.3125 41.148438 -3.851562 41.609375 -3.5625 C 42.066406 -3.269531 42.441406 -3 42.734375 -2.75 C 43.023438 -2.5 43.171875 -2.101562 43.171875 -1.5625 C 43.171875 -0.976562 42.929688 -0.570312 42.453125 -0.34375 C 41.972656 -0.113281 41.148438 0 39.984375 0 L 31.296875 0 C 29.453125 0 28.53125 -0.476562 28.53125 -1.4375 C 28.53125 -2.019531 28.71875 -2.457031 29.09375 -2.75 C 29.46875 -3.039062 29.863281 -3.34375 30.28125 -3.65625 C 30.695312 -3.96875 30.976562 -4.4375 31.125 -5.0625 C 31.28125 -5.6875 31.101562 -6.609375 30.59375 -7.828125 L 29.40625 -10.953125 C 29.238281 -11.410156 29.050781 -11.773438 28.84375 -12.046875 C 28.632812 -12.316406 28.25 -12.503906 27.6875 -12.609375 C 27.125 -12.710938 26.257812 -12.773438 25.09375 -12.796875 C 23.925781 -12.816406 22.28125 -12.828125 20.15625 -12.828125 C 17.9375 -12.828125 16.222656 -12.816406 15.015625 -12.796875 C 13.804688 -12.773438 12.921875 -12.710938 12.359375 -12.609375 C 11.796875 -12.503906 11.410156 -12.328125 11.203125 -12.078125 C 10.992188 -11.828125 10.804688 -11.472656 10.640625 -11.015625 Z M 20.21875 -16.140625 C 22.59375 -16.140625 24.269531 -16.160156 25.25 -16.203125 C 26.226562 -16.242188 26.769531 -16.378906 26.875 -16.609375 C 26.976562 -16.835938 26.925781 -17.222656 26.71875 -17.765625 L 19.96875 -34.984375 L 13.265625 -17.765625 C 13.054688 -17.222656 13.015625 -16.835938 13.140625 -16.609375 C 13.265625 -16.378906 13.847656 -16.242188 14.890625 -16.203125 C 15.929688 -16.160156 17.707031 -16.140625 20.21875 -16.140625 Z M 20.21875 -16.140625 "/></g></g></g><g fill="#ffffff" fill-opacity="1"><g transform="translate(444.294119, 432.267197)"><g><path d="M 23.84375 0.625 C 19.539062 0.625 15.785156 -0.257812 12.578125 -2.03125 C 9.367188 -3.800781 6.875 -6.300781 5.09375 -9.53125 C 3.320312 -12.769531 2.4375 -16.5625 2.4375 -20.90625 C 2.4375 -24.195312 3.007812 -27.257812 4.15625 -30.09375 C 5.300781 -32.9375 6.894531 -35.429688 8.9375 -37.578125 C 10.988281 -39.722656 13.390625 -41.398438 16.140625 -42.609375 C 18.898438 -43.828125 21.863281 -44.4375 25.03125 -44.4375 C 26.90625 -44.4375 28.4375 -44.265625 29.625 -43.921875 C 30.820312 -43.585938 31.835938 -43.421875 32.671875 -43.421875 C 33.378906 -43.421875 33.941406 -43.566406 34.359375 -43.859375 C 34.773438 -44.160156 35.296875 -44.3125 35.921875 -44.3125 C 36.503906 -44.3125 36.960938 -44.097656 37.296875 -43.671875 C 37.628906 -43.253906 38.003906 -42.378906 38.421875 -41.046875 C 38.710938 -40.003906 39.015625 -38.835938 39.328125 -37.546875 C 39.640625 -36.253906 39.941406 -34.671875 40.234375 -32.796875 C 40.359375 -32.085938 40.335938 -31.507812 40.171875 -31.0625 C 40.003906 -30.625 39.628906 -30.363281 39.046875 -30.28125 C 38.460938 -30.238281 37.984375 -30.445312 37.609375 -30.90625 C 37.234375 -31.375 36.753906 -32.003906 36.171875 -32.796875 C 34.796875 -34.921875 33.132812 -36.753906 31.1875 -38.296875 C 29.25 -39.835938 26.78125 -40.609375 23.78125 -40.609375 C 20.90625 -40.609375 18.441406 -39.859375 16.390625 -38.359375 C 14.347656 -36.859375 12.773438 -34.875 11.671875 -32.40625 C 10.566406 -29.945312 10.015625 -27.238281 10.015625 -24.28125 C 10.015625 -20.5625 10.679688 -17.171875 12.015625 -14.109375 C 13.347656 -11.046875 15.234375 -8.613281 17.671875 -6.8125 C 20.117188 -5.019531 23.007812 -4.125 26.34375 -4.125 C 29.257812 -4.125 31.71875 -4.675781 33.71875 -5.78125 C 35.726562 -6.894531 37.523438 -8.304688 39.109375 -10.015625 C 39.566406 -10.515625 40.003906 -10.703125 40.421875 -10.578125 C 40.835938 -10.453125 41.117188 -10.148438 41.265625 -9.671875 C 41.410156 -9.191406 41.296875 -8.617188 40.921875 -7.953125 C 40.253906 -6.691406 39.148438 -5.40625 37.609375 -4.09375 C 36.066406 -2.78125 34.132812 -1.664062 31.8125 -0.75 C 29.5 0.164062 26.84375 0.625 23.84375 0.625 Z M 23.84375 0.625 "/></g></g></g><g fill="#ffffff" fill-opacity="1"><g transform="translate(487.599795, 432.267197)"><g><path d="M 35.171875 -12.078125 C 35.710938 -11.953125 36.046875 -11.679688 36.171875 -11.265625 C 36.296875 -10.847656 36.335938 -10.285156 36.296875 -9.578125 C 36.210938 -7.953125 36.085938 -6.570312 35.921875 -5.4375 C 35.753906 -4.3125 35.546875 -3.289062 35.296875 -2.375 C 35.085938 -1.582031 34.671875 -0.988281 34.046875 -0.59375 C 33.421875 -0.195312 32.125 0 30.15625 0 L 5.5625 0 C 4.394531 0 3.550781 -0.09375 3.03125 -0.28125 C 2.507812 -0.46875 2.25 -0.875 2.25 -1.5 C 2.25 -2.207031 2.445312 -2.6875 2.84375 -2.9375 C 3.238281 -3.1875 3.695312 -3.46875 4.21875 -3.78125 C 4.738281 -4.09375 5.195312 -4.664062 5.59375 -5.5 C 5.988281 -6.34375 6.1875 -7.703125 6.1875 -9.578125 L 6.1875 -34.234375 C 6.1875 -36.109375 5.988281 -37.460938 5.59375 -38.296875 C 5.195312 -39.128906 4.738281 -39.703125 4.21875 -40.015625 C 3.695312 -40.328125 3.238281 -40.609375 2.84375 -40.859375 C 2.445312 -41.109375 2.25 -41.585938 2.25 -42.296875 C 2.25 -42.921875 2.507812 -43.328125 3.03125 -43.515625 C 3.550781 -43.710938 4.394531 -43.8125 5.5625 -43.8125 L 29.28125 -43.875 C 31.125 -43.875 32.328125 -43.734375 32.890625 -43.453125 C 33.453125 -43.179688 33.878906 -42.628906 34.171875 -41.796875 C 34.503906 -40.960938 34.804688 -40.003906 35.078125 -38.921875 C 35.347656 -37.835938 35.585938 -36.609375 35.796875 -35.234375 C 35.921875 -34.523438 35.941406 -33.941406 35.859375 -33.484375 C 35.773438 -33.023438 35.484375 -32.710938 34.984375 -32.546875 C 34.441406 -32.378906 33.960938 -32.460938 33.546875 -32.796875 C 33.128906 -33.128906 32.691406 -33.691406 32.234375 -34.484375 C 31.054688 -36.441406 29.757812 -37.921875 28.34375 -38.921875 C 26.925781 -39.921875 25.15625 -40.421875 23.03125 -40.421875 L 19.84375 -40.421875 C 18 -40.421875 16.617188 -40.316406 15.703125 -40.109375 C 14.785156 -39.898438 14.179688 -39.585938 13.890625 -39.171875 C 13.597656 -38.753906 13.453125 -38.210938 13.453125 -37.546875 L 13.453125 -30.59375 C 13.453125 -29.175781 13.847656 -28.3125 14.640625 -28 C 15.429688 -27.6875 16.515625 -27.53125 17.890625 -27.53125 L 19.09375 -27.53125 C 20.550781 -27.53125 21.65625 -27.632812 22.40625 -27.84375 C 23.15625 -28.050781 23.71875 -28.289062 24.09375 -28.5625 C 24.46875 -28.832031 24.78125 -29.070312 25.03125 -29.28125 C 25.28125 -29.488281 25.65625 -29.59375 26.15625 -29.59375 C 27.03125 -29.59375 27.613281 -28.945312 27.90625 -27.65625 L 29.28125 -21.46875 C 29.53125 -20.300781 29.59375 -19.523438 29.46875 -19.140625 C 29.34375 -18.765625 29.007812 -18.492188 28.46875 -18.328125 C 27.84375 -18.160156 27.289062 -18.359375 26.8125 -18.921875 C 26.332031 -19.492188 25.800781 -20.1875 25.21875 -21 C 24.632812 -21.8125 23.875 -22.550781 22.9375 -23.21875 C 22 -23.882812 20.71875 -24.21875 19.09375 -24.21875 L 17.890625 -24.21875 C 16.515625 -24.21875 15.429688 -24.0625 14.640625 -23.75 C 13.847656 -23.4375 13.453125 -22.570312 13.453125 -21.15625 L 13.453125 -6.390625 C 13.453125 -5.671875 13.609375 -5.09375 13.921875 -4.65625 C 14.234375 -4.21875 14.859375 -3.894531 15.796875 -3.6875 C 16.734375 -3.476562 18.144531 -3.375 20.03125 -3.375 L 24.53125 -3.4375 C 26.15625 -3.4375 27.4375 -3.664062 28.375 -4.125 C 29.3125 -4.582031 30.070312 -5.269531 30.65625 -6.1875 C 31.25 -7.113281 31.859375 -8.265625 32.484375 -9.640625 C 32.984375 -10.722656 33.441406 -11.421875 33.859375 -11.734375 C 34.273438 -12.046875 34.710938 -12.160156 35.171875 -12.078125 Z M 35.171875 -12.078125 "/></g></g></g><g fill="#ffffff" fill-opacity="1"><g transform="translate(526.149355, 432.267197)"><g><path d="M 29.78125 -17.890625 L 35.671875 -7.265625 C 36.253906 -6.210938 36.847656 -5.414062 37.453125 -4.875 C 38.054688 -4.332031 38.597656 -3.925781 39.078125 -3.65625 C 39.554688 -3.382812 39.941406 -3.101562 40.234375 -2.8125 C 40.523438 -2.519531 40.671875 -2.082031 40.671875 -1.5 C 40.671875 -0.5 39.734375 0 37.859375 0 L 29.84375 0 C 28.84375 0 28.082031 -0.113281 27.5625 -0.34375 C 27.039062 -0.570312 26.78125 -1 26.78125 -1.625 C 26.78125 -2.082031 26.925781 -2.476562 27.21875 -2.8125 C 27.507812 -3.144531 27.8125 -3.5 28.125 -3.875 C 28.4375 -4.25 28.601562 -4.71875 28.625 -5.28125 C 28.644531 -5.84375 28.40625 -6.585938 27.90625 -7.515625 L 24.09375 -14.515625 C 23.550781 -15.472656 22.925781 -16.117188 22.21875 -16.453125 C 21.507812 -16.785156 20.296875 -17.054688 18.578125 -17.265625 C 16.910156 -17.472656 15.640625 -17.546875 14.765625 -17.484375 C 13.890625 -17.421875 13.453125 -16.867188 13.453125 -15.828125 L 13.453125 -9.765625 C 13.453125 -7.929688 13.640625 -6.582031 14.015625 -5.71875 C 14.390625 -4.863281 14.835938 -4.257812 15.359375 -3.90625 C 15.878906 -3.550781 16.328125 -3.226562 16.703125 -2.9375 C 17.078125 -2.644531 17.265625 -2.164062 17.265625 -1.5 C 17.265625 -0.957031 17.015625 -0.570312 16.515625 -0.34375 C 16.015625 -0.113281 15.160156 0 13.953125 0 L 5.5625 0 C 3.351562 0 2.25 -0.5 2.25 -1.5 C 2.25 -2.164062 2.445312 -2.644531 2.84375 -2.9375 C 3.238281 -3.226562 3.695312 -3.550781 4.21875 -3.90625 C 4.738281 -4.257812 5.195312 -4.863281 5.59375 -5.71875 C 5.988281 -6.582031 6.1875 -7.929688 6.1875 -9.765625 L 6.1875 -34.234375 C 6.1875 -36.109375 5.988281 -37.460938 5.59375 -38.296875 C 5.195312 -39.128906 4.738281 -39.703125 4.21875 -40.015625 C 3.695312 -40.328125 3.238281 -40.609375 2.84375 -40.859375 C 2.445312 -41.109375 2.25 -41.585938 2.25 -42.296875 C 2.25 -42.921875 2.507812 -43.328125 3.03125 -43.515625 C 3.550781 -43.710938 4.394531 -43.8125 5.5625 -43.8125 L 18.078125 -43.8125 C 22.628906 -43.8125 26.382812 -43.148438 29.34375 -41.828125 C 32.3125 -40.515625 34.515625 -38.804688 35.953125 -36.703125 C 37.390625 -34.597656 38.109375 -32.3125 38.109375 -29.84375 C 38.109375 -26.925781 37.398438 -24.457031 35.984375 -22.4375 C 34.566406 -20.414062 32.5 -18.898438 29.78125 -17.890625 Z M 21.21875 -20.34375 C 24.175781 -20.175781 26.457031 -20.894531 28.0625 -22.5 C 29.664062 -24.101562 30.46875 -26.28125 30.46875 -29.03125 C 30.46875 -31.125 29.96875 -33.035156 28.96875 -34.765625 C 27.96875 -36.492188 26.53125 -37.890625 24.65625 -38.953125 C 22.78125 -40.015625 20.523438 -40.546875 17.890625 -40.546875 C 16.015625 -40.546875 14.804688 -40.429688 14.265625 -40.203125 C 13.722656 -39.972656 13.453125 -39.523438 13.453125 -38.859375 L 13.453125 -23.40625 C 13.453125 -22.613281 13.910156 -22.007812 14.828125 -21.59375 C 15.742188 -21.175781 16.804688 -20.875 18.015625 -20.6875 C 19.234375 -20.5 20.300781 -20.382812 21.21875 -20.34375 Z M 21.21875 -20.34375 "/></g></g></g><g fill="#ffffff" fill-opacity="1"><g transform="translate(568.266003, 432.267197)"><g><path d="M 5.5625 -43.8125 L 19.46875 -43.8125 C 23.882812 -43.8125 27.644531 -43.191406 30.75 -41.953125 C 33.863281 -40.722656 36.398438 -39.078125 38.359375 -37.015625 C 40.316406 -34.953125 41.753906 -32.664062 42.671875 -30.15625 C 43.597656 -27.65625 44.0625 -25.15625 44.0625 -22.65625 C 44.0625 -19.644531 43.597656 -16.785156 42.671875 -14.078125 C 41.753906 -11.367188 40.367188 -8.945312 38.515625 -6.8125 C 36.660156 -4.6875 34.289062 -3.019531 31.40625 -1.8125 C 28.53125 -0.601562 25.113281 0 21.15625 0 L 5.5625 0 C 4.394531 0 3.550781 -0.09375 3.03125 -0.28125 C 2.507812 -0.46875 2.25 -0.875 2.25 -1.5 C 2.25 -2.207031 2.445312 -2.6875 2.84375 -2.9375 C 3.238281 -3.1875 3.695312 -3.46875 4.21875 -3.78125 C 4.738281 -4.09375 5.195312 -4.664062 5.59375 -5.5 C 5.988281 -6.34375 6.1875 -7.703125 6.1875 -9.578125 L 6.1875 -34.234375 C 6.1875 -36.109375 5.988281 -37.460938 5.59375 -38.296875 C 5.195312 -39.128906 4.738281 -39.703125 4.21875 -40.015625 C 3.695312 -40.328125 3.238281 -40.609375 2.84375 -40.859375 C 2.445312 -41.109375 2.25 -41.585938 2.25 -42.296875 C 2.25 -42.921875 2.507812 -43.328125 3.03125 -43.515625 C 3.550781 -43.710938 4.394531 -43.8125 5.5625 -43.8125 Z M 20.40625 -3.25 C 24.488281 -3.25 27.6875 -3.988281 30 -5.46875 C 32.320312 -6.957031 33.960938 -8.929688 34.921875 -11.390625 C 35.878906 -13.847656 36.359375 -16.519531 36.359375 -19.40625 C 36.359375 -23.40625 35.597656 -27.007812 34.078125 -30.21875 C 32.554688 -33.4375 30.375 -35.984375 27.53125 -37.859375 C 24.695312 -39.734375 21.316406 -40.671875 17.390625 -40.671875 C 15.890625 -40.671875 14.859375 -40.503906 14.296875 -40.171875 C 13.734375 -39.835938 13.453125 -39.085938 13.453125 -37.921875 L 13.453125 -7.015625 C 13.453125 -6.171875 13.617188 -5.46875 13.953125 -4.90625 C 14.285156 -4.34375 14.953125 -3.925781 15.953125 -3.65625 C 16.953125 -3.382812 18.4375 -3.25 20.40625 -3.25 Z M 20.40625 -3.25 "/></g></g></g><g fill="#ffffff" fill-opacity="1"><g transform="translate(614.888452, 432.267197)"><g><path d="M 10.640625 -11.015625 L 9.328125 -7.703125 C 8.828125 -6.441406 8.628906 -5.5 8.734375 -4.875 C 8.835938 -4.25 9.054688 -3.789062 9.390625 -3.5 C 9.722656 -3.207031 10.054688 -2.925781 10.390625 -2.65625 C 10.722656 -2.382812 10.890625 -2 10.890625 -1.5 C 10.890625 -0.914062 10.640625 -0.519531 10.140625 -0.3125 C 9.640625 -0.101562 9.035156 0 8.328125 0 L 2.9375 0 C 2.0625 0 1.363281 -0.101562 0.84375 -0.3125 C 0.320312 -0.519531 0.0625 -0.894531 0.0625 -1.4375 C 0.0625 -1.976562 0.238281 -2.382812 0.59375 -2.65625 C 0.945312 -2.925781 1.394531 -3.207031 1.9375 -3.5 C 2.476562 -3.789062 3.039062 -4.25 3.625 -4.875 C 4.207031 -5.5 4.75 -6.441406 5.25 -7.703125 L 16.765625 -36.734375 C 17.140625 -37.691406 17.242188 -38.421875 17.078125 -38.921875 C 16.910156 -39.421875 16.640625 -39.816406 16.265625 -40.109375 C 15.890625 -40.398438 15.523438 -40.703125 15.171875 -41.015625 C 14.816406 -41.328125 14.640625 -41.753906 14.640625 -42.296875 C 14.640625 -43.304688 15.265625 -43.8125 16.515625 -43.8125 L 22.90625 -43.8125 C 23.863281 -43.8125 24.53125 -43.347656 24.90625 -42.421875 L 38.546875 -7.828125 C 39.046875 -6.523438 39.566406 -5.5625 40.109375 -4.9375 C 40.648438 -4.3125 41.148438 -3.851562 41.609375 -3.5625 C 42.066406 -3.269531 42.441406 -3 42.734375 -2.75 C 43.023438 -2.5 43.171875 -2.101562 43.171875 -1.5625 C 43.171875 -0.976562 42.929688 -0.570312 42.453125 -0.34375 C 41.972656 -0.113281 41.148438 0 39.984375 0 L 31.296875 0 C 29.453125 0 28.53125 -0.476562 28.53125 -1.4375 C 28.53125 -2.019531 28.71875 -2.457031 29.09375 -2.75 C 29.46875 -3.039062 29.863281 -3.34375 30.28125 -3.65625 C 30.695312 -3.96875 30.976562 -4.4375 31.125 -5.0625 C 31.28125 -5.6875 31.101562 -6.609375 30.59375 -7.828125 L 29.40625 -10.953125 C 29.238281 -11.410156 29.050781 -11.773438 28.84375 -12.046875 C 28.632812 -12.316406 28.25 -12.503906 27.6875 -12.609375 C 27.125 -12.710938 26.257812 -12.773438 25.09375 -12.796875 C 23.925781 -12.816406 22.28125 -12.828125 20.15625 -12.828125 C 17.9375 -12.828125 16.222656 -12.816406 15.015625 -12.796875 C 13.804688 -12.773438 12.921875 -12.710938 12.359375 -12.609375 C 11.796875 -12.503906 11.410156 -12.328125 11.203125 -12.078125 C 10.992188 -11.828125 10.804688 -11.472656 10.640625 -11.015625 Z M 20.21875 -16.140625 C 22.59375 -16.140625 24.269531 -16.160156 25.25 -16.203125 C 26.226562 -16.242188 26.769531 -16.378906 26.875 -16.609375 C 26.976562 -16.835938 26.925781 -17.222656 26.71875 -17.765625 L 19.96875 -34.984375 L 13.265625 -17.765625 C 13.054688 -17.222656 13.015625 -16.835938 13.140625 -16.609375 C 13.265625 -16.378906 13.847656 -16.242188 14.890625 -16.203125 C 15.929688 -16.160156 17.707031 -16.140625 20.21875 -16.140625 Z M 20.21875 -16.140625 "/></g></g></g><g fill="#ffffff" fill-opacity="1"><g transform="translate(394.301981, 464.001169)"><g><path d="M 1.84375 0 L 1.84375 -12.140625 L 6.25 -12.140625 C 7.0625 -12.140625 7.742188 -12.003906 8.296875 -11.734375 C 8.847656 -11.472656 9.265625 -11.097656 9.546875 -10.609375 C 9.828125 -10.117188 9.96875 -9.535156 9.96875 -8.859375 C 9.96875 -8.109375 9.773438 -7.488281 9.390625 -7 C 9.015625 -6.507812 8.429688 -6.144531 7.640625 -5.90625 L 7.640625 -5.71875 C 8.023438 -5.5625 8.34375 -5.316406 8.59375 -4.984375 C 8.84375 -4.660156 9.070312 -4.164062 9.28125 -3.5 L 10.40625 0 L 8.9375 0 L 7.734375 -3.71875 C 7.585938 -4.15625 7.421875 -4.5 7.234375 -4.75 C 7.046875 -5 6.804688 -5.175781 6.515625 -5.28125 C 6.222656 -5.394531 5.859375 -5.453125 5.421875 -5.453125 L 3.265625 -5.453125 L 3.265625 0 Z M 6.21875 -6.65625 C 6.976562 -6.65625 7.539062 -6.832031 7.90625 -7.1875 C 8.28125 -7.539062 8.46875 -8.078125 8.46875 -8.796875 C 8.46875 -9.515625 8.28125 -10.050781 7.90625 -10.40625 C 7.539062 -10.757812 6.976562 -10.9375 6.21875 -10.9375 L 3.265625 -10.9375 L 3.265625 -6.65625 Z M 6.21875 -6.65625 "/></g></g></g><g fill="#ffffff" fill-opacity="1"><g transform="translate(409.34606, 464.001169)"><g><path d="M 3.265625 -5.71875 L 3.265625 -1.1875 L 9.453125 -1.1875 L 9.453125 0 L 1.84375 0 L 1.84375 -12.140625 L 9.328125 -12.140625 L 9.328125 -10.96875 L 3.265625 -10.96875 L 3.265625 -6.90625 L 8.609375 -6.90625 L 8.609375 -5.71875 Z M 3.265625 -5.71875 "/></g></g></g><g fill="#ffffff" fill-opacity="1"><g transform="translate(423.401737, 464.001169)"><g><path d="M 8.96875 -12.140625 L 8.96875 -10.96875 L 3.265625 -10.96875 L 3.265625 -6.546875 L 8.40625 -6.546875 L 8.40625 -5.359375 L 3.265625 -5.359375 L 3.265625 0 L 1.84375 0 L 1.84375 -12.140625 Z M 8.96875 -12.140625 "/></g></g></g><g fill="#ffffff" fill-opacity="1"><g transform="translate(436.826165, 464.001169)"><g><path d="M 6.65625 0.171875 C 5.601562 0.171875 4.664062 -0.0507812 3.84375 -0.5 C 3.03125 -0.957031 2.390625 -1.648438 1.921875 -2.578125 C 1.453125 -3.515625 1.21875 -4.679688 1.21875 -6.078125 C 1.21875 -7.460938 1.453125 -8.617188 1.921875 -9.546875 C 2.390625 -10.484375 3.03125 -11.179688 3.84375 -11.640625 C 4.664062 -12.097656 5.601562 -12.328125 6.65625 -12.328125 C 7.707031 -12.328125 8.644531 -12.097656 9.46875 -11.640625 C 10.289062 -11.179688 10.9375 -10.484375 11.40625 -9.546875 C 11.875 -8.617188 12.109375 -7.460938 12.109375 -6.078125 C 12.109375 -4.679688 11.875 -3.515625 11.40625 -2.578125 C 10.9375 -1.648438 10.289062 -0.957031 9.46875 -0.5 C 8.644531 -0.0507812 7.707031 0.171875 6.65625 0.171875 Z M 6.65625 -1.140625 C 7.925781 -1.140625 8.894531 -1.535156 9.5625 -2.328125 C 10.238281 -3.117188 10.578125 -4.367188 10.578125 -6.078125 C 10.578125 -7.773438 10.238281 -9.019531 9.5625 -9.8125 C 8.894531 -10.601562 7.925781 -11 6.65625 -11 C 4.039062 -11 2.734375 -9.359375 2.734375 -6.078125 C 2.734375 -2.785156 4.039062 -1.140625 6.65625 -1.140625 Z M 6.65625 -1.140625 "/></g></g></g><g fill="#ffffff" fill-opacity="1"><g transform="translate(453.946719, 464.001169)"><g><path d="M 1.84375 0 L 1.84375 -12.140625 L 6.25 -12.140625 C 7.0625 -12.140625 7.742188 -12.003906 8.296875 -11.734375 C 8.847656 -11.472656 9.265625 -11.097656 9.546875 -10.609375 C 9.828125 -10.117188 9.96875 -9.535156 9.96875 -8.859375 C 9.96875 -8.109375 9.773438 -7.488281 9.390625 -7 C 9.015625 -6.507812 8.429688 -6.144531 7.640625 -5.90625 L 7.640625 -5.71875 C 8.023438 -5.5625 8.34375 -5.316406 8.59375 -4.984375 C 8.84375 -4.660156 9.070312 -4.164062 9.28125 -3.5 L 10.40625 0 L 8.9375 0 L 7.734375 -3.71875 C 7.585938 -4.15625 7.421875 -4.5 7.234375 -4.75 C 7.046875 -5 6.804688 -5.175781 6.515625 -5.28125 C 6.222656 -5.394531 5.859375 -5.453125 5.421875 -5.453125 L 3.265625 -5.453125 L 3.265625 0 Z M 6.21875 -6.65625 C 6.976562 -6.65625 7.539062 -6.832031 7.90625 -7.1875 C 8.28125 -7.539062 8.46875 -8.078125 8.46875 -8.796875 C 8.46875 -9.515625 8.28125 -10.050781 7.90625 -10.40625 C 7.539062 -10.757812 6.976562 -10.9375 6.21875 -10.9375 L 3.265625 -10.9375 L 3.265625 -6.65625 Z M 6.21875 -6.65625 "/></g></g></g><g fill="#ffffff" fill-opacity="1"><g transform="translate(468.9908, 464.001169)"><g><path d="M 3.15625 0 L 1.84375 0 L 1.84375 -12.140625 L 3.953125 -12.140625 L 7.640625 -1.859375 L 7.8125 -1.859375 L 11.484375 -12.140625 L 13.53125 -12.140625 L 13.53125 0 L 12.1875 0 L 12.1875 -9.90625 L 11.96875 -9.9375 L 8.390625 0 L 6.96875 0 L 3.359375 -9.9375 L 3.15625 -9.90625 Z M 3.15625 0 "/></g></g></g><g fill="#ffffff" fill-opacity="1"><g transform="translate(488.162905, 464.001169)"><g><path d="M 10.9375 0 L 9.40625 0 L 8.28125 -3.328125 L 3.109375 -3.328125 L 1.984375 0 L 0.484375 0 L 4.71875 -12.140625 L 6.703125 -12.140625 Z M 5.59375 -10.671875 L 3.5 -4.53125 L 7.875 -4.53125 L 5.796875 -10.671875 Z M 5.59375 -10.671875 "/></g></g></g><g fill="#ffffff" fill-opacity="1"><g transform="translate(503.373098, 464.001169)"><g><path d="M 5.3125 0.171875 C 4.539062 0.171875 3.851562 0.0664062 3.25 -0.140625 C 2.644531 -0.347656 2.140625 -0.617188 1.734375 -0.953125 C 1.328125 -1.296875 1.023438 -1.664062 0.828125 -2.0625 L 1.609375 -3.015625 L 1.8125 -3.015625 C 2.570312 -1.742188 3.738281 -1.109375 5.3125 -1.109375 C 6.226562 -1.109375 6.90625 -1.300781 7.34375 -1.6875 C 7.789062 -2.070312 8.015625 -2.601562 8.015625 -3.28125 C 8.015625 -3.675781 7.941406 -4.007812 7.796875 -4.28125 C 7.648438 -4.5625 7.40625 -4.800781 7.0625 -5 C 6.726562 -5.195312 6.269531 -5.367188 5.6875 -5.515625 L 4.265625 -5.859375 C 3.210938 -6.117188 2.4375 -6.523438 1.9375 -7.078125 C 1.4375 -7.640625 1.1875 -8.347656 1.1875 -9.203125 C 1.1875 -9.804688 1.335938 -10.34375 1.640625 -10.8125 C 1.953125 -11.289062 2.40625 -11.660156 3 -11.921875 C 3.601562 -12.191406 4.320312 -12.328125 5.15625 -12.328125 C 6.0625 -12.328125 6.828125 -12.195312 7.453125 -11.9375 C 8.085938 -11.675781 8.59375 -11.289062 8.96875 -10.78125 L 8.28125 -9.84375 L 8.0625 -9.84375 C 7.71875 -10.269531 7.304688 -10.582031 6.828125 -10.78125 C 6.347656 -10.976562 5.789062 -11.078125 5.15625 -11.078125 C 4.3125 -11.078125 3.671875 -10.910156 3.234375 -10.578125 C 2.804688 -10.253906 2.59375 -9.804688 2.59375 -9.234375 C 2.59375 -8.679688 2.75 -8.242188 3.0625 -7.921875 C 3.382812 -7.597656 3.921875 -7.347656 4.671875 -7.171875 L 6.125 -6.828125 C 7.300781 -6.546875 8.15625 -6.117188 8.6875 -5.546875 C 9.21875 -4.972656 9.484375 -4.238281 9.484375 -3.34375 C 9.484375 -2.65625 9.328125 -2.046875 9.015625 -1.515625 C 8.710938 -0.992188 8.25 -0.582031 7.625 -0.28125 C 7 0.0195312 6.226562 0.171875 5.3125 0.171875 Z M 5.3125 0.171875 "/></g></g></g><g fill="#ffffff" fill-opacity="1"><g transform="translate(525.545729, 464.001169)"><g><path d="M 6.1875 -12.140625 C 7.019531 -12.140625 7.734375 -11.988281 8.328125 -11.6875 C 8.929688 -11.394531 9.390625 -10.96875 9.703125 -10.40625 C 10.015625 -9.851562 10.171875 -9.203125 10.171875 -8.453125 C 10.171875 -7.691406 10.015625 -7.035156 9.703125 -6.484375 C 9.390625 -5.929688 8.929688 -5.503906 8.328125 -5.203125 C 7.734375 -4.898438 7.019531 -4.75 6.1875 -4.75 L 3.265625 -4.75 L 3.265625 0 L 1.84375 0 L 1.84375 -12.140625 Z M 6.140625 -5.96875 C 7.828125 -5.96875 8.671875 -6.796875 8.671875 -8.453125 C 8.671875 -10.109375 7.828125 -10.9375 6.140625 -10.9375 L 3.265625 -10.9375 L 3.265625 -5.96875 Z M 6.140625 -5.96875 "/></g></g></g><g fill="#ffffff" fill-opacity="1"><g transform="translate(540.41538, 464.001169)"><g><path d="M 1.84375 0 L 1.84375 -12.140625 L 6.25 -12.140625 C 7.0625 -12.140625 7.742188 -12.003906 8.296875 -11.734375 C 8.847656 -11.472656 9.265625 -11.097656 9.546875 -10.609375 C 9.828125 -10.117188 9.96875 -9.535156 9.96875 -8.859375 C 9.96875 -8.109375 9.773438 -7.488281 9.390625 -7 C 9.015625 -6.507812 8.429688 -6.144531 7.640625 -5.90625 L 7.640625 -5.71875 C 8.023438 -5.5625 8.34375 -5.316406 8.59375 -4.984375 C 8.84375 -4.660156 9.070312 -4.164062 9.28125 -3.5 L 10.40625 0 L 8.9375 0 L 7.734375 -3.71875 C 7.585938 -4.15625 7.421875 -4.5 7.234375 -4.75 C 7.046875 -5 6.804688 -5.175781 6.515625 -5.28125 C 6.222656 -5.394531 5.859375 -5.453125 5.421875 -5.453125 L 3.265625 -5.453125 L 3.265625 0 Z M 6.21875 -6.65625 C 6.976562 -6.65625 7.539062 -6.832031 7.90625 -7.1875 C 8.28125 -7.539062 8.46875 -8.078125 8.46875 -8.796875 C 8.46875 -9.515625 8.28125 -10.050781 7.90625 -10.40625 C 7.539062 -10.757812 6.976562 -10.9375 6.21875 -10.9375 L 3.265625 -10.9375 L 3.265625 -6.65625 Z M 6.21875 -6.65625 "/></g></g></g><g fill="#ffffff" fill-opacity="1"><g transform="translate(555.459455, 464.001169)"><g><path d="M 3.265625 -5.71875 L 3.265625 -1.1875 L 9.453125 -1.1875 L 9.453125 0 L 1.84375 0 L 1.84375 -12.140625 L 9.328125 -12.140625 L 9.328125 -10.96875 L 3.265625 -10.96875 L 3.265625 -6.90625 L 8.609375 -6.90625 L 8.609375 -5.71875 Z M 3.265625 -5.71875 "/></g></g></g><g fill="#ffffff" fill-opacity="1"><g transform="translate(569.515128, 464.001169)"><g><path d="M 5.765625 -12.140625 C 6.992188 -12.140625 8.050781 -11.921875 8.9375 -11.484375 C 9.820312 -11.046875 10.503906 -10.375 10.984375 -9.46875 C 11.460938 -8.570312 11.703125 -7.441406 11.703125 -6.078125 C 11.703125 -4.710938 11.460938 -3.578125 10.984375 -2.671875 C 10.503906 -1.773438 9.820312 -1.101562 8.9375 -0.65625 C 8.050781 -0.21875 6.992188 0 5.765625 0 L 1.84375 0 L 1.84375 -12.140625 Z M 5.625 -1.21875 C 6.632812 -1.21875 7.472656 -1.375 8.140625 -1.6875 C 8.804688 -2 9.3125 -2.507812 9.65625 -3.21875 C 10 -3.9375 10.171875 -4.890625 10.171875 -6.078125 C 10.171875 -7.253906 10 -8.195312 9.65625 -8.90625 C 9.3125 -9.625 8.804688 -10.140625 8.140625 -10.453125 C 7.472656 -10.773438 6.632812 -10.9375 5.625 -10.9375 L 3.265625 -10.9375 L 3.265625 -1.21875 Z M 5.625 -1.21875 "/></g></g></g><g fill="#ffffff" fill-opacity="1"><g transform="translate(586.220393, 464.001169)"><g><path d="M 3.265625 0 L 1.84375 0 L 1.84375 -12.140625 L 3.265625 -12.140625 Z M 3.265625 0 "/></g></g></g><g fill="#ffffff" fill-opacity="1"><g transform="translate(595.126422, 464.001169)"><g><path d="M 10.9375 0 L 9.40625 0 L 8.28125 -3.328125 L 3.109375 -3.328125 L 1.984375 0 L 0.484375 0 L 4.71875 -12.140625 L 6.703125 -12.140625 Z M 5.59375 -10.671875 L 3.5 -4.53125 L 7.875 -4.53125 L 5.796875 -10.671875 Z M 5.59375 -10.671875 "/></g></g></g><g fill="#ffffff" fill-opacity="1"><g transform="translate(610.336625, 464.001169)"><g><path d="M 3.265625 0 L 1.84375 0 L 1.84375 -12.140625 L 3.265625 -12.140625 Z M 3.265625 0 "/></g></g></g><g fill="#ffffff" fill-opacity="1"><g transform="translate(619.242654, 464.001169)"><g><path d="M 5.3125 0.171875 C 4.539062 0.171875 3.851562 0.0664062 3.25 -0.140625 C 2.644531 -0.347656 2.140625 -0.617188 1.734375 -0.953125 C 1.328125 -1.296875 1.023438 -1.664062 0.828125 -2.0625 L 1.609375 -3.015625 L 1.8125 -3.015625 C 2.570312 -1.742188 3.738281 -1.109375 5.3125 -1.109375 C 6.226562 -1.109375 6.90625 -1.300781 7.34375 -1.6875 C 7.789062 -2.070312 8.015625 -2.601562 8.015625 -3.28125 C 8.015625 -3.675781 7.941406 -4.007812 7.796875 -4.28125 C 7.648438 -4.5625 7.40625 -4.800781 7.0625 -5 C 6.726562 -5.195312 6.269531 -5.367188 5.6875 -5.515625 L 4.265625 -5.859375 C 3.210938 -6.117188 2.4375 -6.523438 1.9375 -7.078125 C 1.4375 -7.640625 1.1875 -8.347656 1.1875 -9.203125 C 1.1875 -9.804688 1.335938 -10.34375 1.640625 -10.8125 C 1.953125 -11.289062 2.40625 -11.660156 3 -11.921875 C 3.601562 -12.191406 4.320312 -12.328125 5.15625 -12.328125 C 6.0625 -12.328125 6.828125 -12.195312 7.453125 -11.9375 C 8.085938 -11.675781 8.59375 -11.289062 8.96875 -10.78125 L 8.28125 -9.84375 L 8.0625 -9.84375 C 7.71875 -10.269531 7.304688 -10.582031 6.828125 -10.78125 C 6.347656 -10.976562 5.789062 -11.078125 5.15625 -11.078125 C 4.3125 -11.078125 3.671875 -10.910156 3.234375 -10.578125 C 2.804688 -10.253906 2.59375 -9.804688 2.59375 -9.234375 C 2.59375 -8.679688 2.75 -8.242188 3.0625 -7.921875 C 3.382812 -7.597656 3.921875 -7.347656 4.671875 -7.171875 L 6.125 -6.828125 C 7.300781 -6.546875 8.15625 -6.117188 8.6875 -5.546875 C 9.21875 -4.972656 9.484375 -4.238281 9.484375 -3.34375 C 9.484375 -2.65625 9.328125 -2.046875 9.015625 -1.515625 C 8.710938 -0.992188 8.25 -0.582031 7.625 -0.28125 C 7 0.0195312 6.226562 0.171875 5.3125 0.171875 Z M 5.3125 0.171875 "/></g></g></g></svg>