<svg xmlns="http://www.w3.org/2000/svg" xmlns:xlink="http://www.w3.org/1999/xlink" width="500" zoomAndPan="magnify" viewBox="0 0 375 374.999991" height="500" preserveAspectRatio="xMidYMid meet" version="1.0"><defs><g/><clipPath id="d3debc2eae"><path d="M 216.054688 2.050781 L 289.421875 2.050781 L 289.421875 263.429688 L 216.054688 263.429688 Z M 216.054688 2.050781 " clip-rule="nonzero"/></clipPath><clipPath id="7e63610ace"><path d="M 289.421875 28.601562 L 289.421875 263.222656 L 216.054688 236.675781 L 216.054688 2.050781 Z M 289.421875 28.601562 " clip-rule="nonzero"/></clipPath><clipPath id="e575496422"><path d="M 154.71875 2 L 216.066406 2 L 216.066406 76.957031 L 154.71875 76.957031 Z M 154.71875 2 " clip-rule="nonzero"/></clipPath><clipPath id="ef3db85ff7"><path d="M 154.71875 24.242188 L 154.71875 76.957031 L 216.066406 54.757812 L 216.066406 2.046875 Z M 154.71875 24.242188 " clip-rule="nonzero"/></clipPath><clipPath id="4f5fedeab4"><path d="M 127.03125 66.484375 L 179.671875 66.484375 L 179.671875 223.171875 L 127.03125 223.171875 Z M 127.03125 66.484375 " clip-rule="nonzero"/></clipPath><clipPath id="7c04f6dd3b"><path d="M 179.671875 85.535156 L 179.671875 223.085938 L 127.03125 204.035156 L 127.03125 66.484375 Z M 179.671875 85.535156 " clip-rule="nonzero"/></clipPath><clipPath id="7b094a74ee"><path d="M 85.570312 66.417969 L 127.039062 66.417969 L 127.039062 176.085938 L 85.570312 176.085938 Z M 85.570312 66.417969 " clip-rule="nonzero"/></clipPath><clipPath id="e32cf8b783"><path d="M 85.570312 81.488281 L 85.570312 176.085938 L 127.039062 161.078125 L 127.039062 66.484375 Z M 85.570312 81.488281 " clip-rule="nonzero"/></clipPath></defs><g clip-path="url(#d3debc2eae)"><g clip-path="url(#7e63610ace)"><path fill="#0e2442" d="M 289.421875 2.050781 L 289.421875 263.144531 L 216.054688 263.144531 L 216.054688 2.050781 Z M 289.421875 2.050781 " fill-opacity="1" fill-rule="nonzero"/></g></g><g clip-path="url(#e575496422)"><g clip-path="url(#ef3db85ff7)"><path fill="#0e2442" d="M 154.71875 76.957031 L 154.71875 1.953125 L 216.066406 1.953125 L 216.066406 76.957031 Z M 154.71875 76.957031 " fill-opacity="1" fill-rule="nonzero"/></g></g><g clip-path="url(#4f5fedeab4)"><g clip-path="url(#7c04f6dd3b)"><path fill="#0e2442" d="M 179.671875 66.484375 L 179.671875 223.171875 L 127.03125 223.171875 L 127.03125 66.484375 Z M 179.671875 66.484375 " fill-opacity="1" fill-rule="nonzero"/></g></g><g clip-path="url(#7b094a74ee)"><g clip-path="url(#e32cf8b783)"><path fill="#0e2442" d="M 85.570312 176.085938 L 85.570312 66.417969 L 127.039062 66.417969 L 127.039062 176.085938 Z M 85.570312 176.085938 " fill-opacity="1" fill-rule="nonzero"/></g></g><g fill="#0e2442" fill-opacity="1"><g transform="translate(45.772417, 323.536616)"><g><path d="M 31.546875 -11.65625 C 32.066406 -11.539062 32.382812 -11.28125 32.5 -10.875 C 32.625 -10.46875 32.664062 -9.925781 32.625 -9.25 C 32.539062 -7.675781 32.421875 -6.34375 32.265625 -5.25 C 32.109375 -4.164062 31.90625 -3.179688 31.65625 -2.296875 C 31.457031 -1.523438 31.054688 -0.945312 30.453125 -0.5625 C 29.847656 -0.1875 28.597656 0 26.703125 0 L 5.375 0 C 4.25 0 3.429688 -0.0859375 2.921875 -0.265625 C 2.421875 -0.453125 2.171875 -0.847656 2.171875 -1.453125 C 2.171875 -2.140625 2.363281 -2.601562 2.75 -2.84375 C 3.132812 -3.082031 3.578125 -3.351562 4.078125 -3.65625 C 4.578125 -3.957031 5.019531 -4.507812 5.40625 -5.3125 C 5.789062 -6.125 5.984375 -7.4375 5.984375 -9.25 L 5.984375 -32.875 C 5.984375 -34.644531 5.800781 -35.941406 5.4375 -36.765625 C 5.070312 -37.585938 4.640625 -38.171875 4.140625 -38.515625 C 3.640625 -38.859375 3.207031 -39.171875 2.84375 -39.453125 C 2.476562 -39.734375 2.296875 -40.195312 2.296875 -40.84375 C 2.296875 -41.40625 2.535156 -41.785156 3.015625 -41.984375 C 3.503906 -42.191406 4.332031 -42.296875 5.5 -42.296875 L 13.59375 -42.296875 C 15.726562 -42.296875 16.796875 -41.8125 16.796875 -40.84375 C 16.796875 -40.195312 16.601562 -39.734375 16.21875 -39.453125 C 15.84375 -39.171875 15.398438 -38.859375 14.890625 -38.515625 C 14.390625 -38.171875 13.945312 -37.585938 13.5625 -36.765625 C 13.175781 -35.941406 12.984375 -34.644531 12.984375 -32.875 L 12.984375 -6.15625 C 12.984375 -5.15625 13.296875 -4.421875 13.921875 -3.953125 C 14.546875 -3.492188 15.90625 -3.265625 18 -3.265625 L 21.265625 -3.328125 C 22.835938 -3.328125 24.078125 -3.546875 24.984375 -3.984375 C 25.890625 -4.429688 26.625 -5.097656 27.1875 -5.984375 C 27.75 -6.867188 28.332031 -7.976562 28.9375 -9.3125 C 29.425781 -10.351562 29.867188 -11.023438 30.265625 -11.328125 C 30.671875 -11.628906 31.097656 -11.738281 31.546875 -11.65625 Z M 31.546875 -11.65625 "/></g></g></g><g fill="#0e2442" fill-opacity="1"><g transform="translate(79.787188, 323.536616)"><g><path d="M 10.265625 -10.640625 L 9 -7.4375 C 8.519531 -6.226562 8.328125 -5.320312 8.421875 -4.71875 C 8.523438 -4.113281 8.738281 -3.664062 9.0625 -3.375 C 9.382812 -3.09375 9.707031 -2.820312 10.03125 -2.5625 C 10.351562 -2.300781 10.515625 -1.929688 10.515625 -1.453125 C 10.515625 -0.890625 10.269531 -0.503906 9.78125 -0.296875 C 9.300781 -0.0976562 8.71875 0 8.03125 0 L 2.84375 0 C 2 0 1.320312 -0.0976562 0.8125 -0.296875 C 0.3125 -0.503906 0.0625 -0.867188 0.0625 -1.390625 C 0.0625 -1.910156 0.234375 -2.300781 0.578125 -2.5625 C 0.921875 -2.820312 1.351562 -3.09375 1.875 -3.375 C 2.394531 -3.664062 2.9375 -4.113281 3.5 -4.71875 C 4.0625 -5.320312 4.585938 -6.226562 5.078125 -7.4375 L 16.1875 -35.46875 C 16.550781 -36.394531 16.648438 -37.097656 16.484375 -37.578125 C 16.328125 -38.066406 16.066406 -38.453125 15.703125 -38.734375 C 15.347656 -39.015625 15 -39.304688 14.65625 -39.609375 C 14.3125 -39.910156 14.140625 -40.320312 14.140625 -40.84375 C 14.140625 -41.8125 14.742188 -42.296875 15.953125 -42.296875 L 22.109375 -42.296875 C 23.035156 -42.296875 23.679688 -41.851562 24.046875 -40.96875 L 37.21875 -7.546875 C 37.695312 -6.296875 38.195312 -5.367188 38.71875 -4.765625 C 39.25 -4.160156 39.734375 -3.71875 40.171875 -3.4375 C 40.617188 -3.15625 40.984375 -2.894531 41.265625 -2.65625 C 41.546875 -2.414062 41.6875 -2.035156 41.6875 -1.515625 C 41.6875 -0.953125 41.453125 -0.554688 40.984375 -0.328125 C 40.523438 -0.109375 39.734375 0 38.609375 0 L 30.21875 0 C 28.4375 0 27.546875 -0.460938 27.546875 -1.390625 C 27.546875 -1.953125 27.726562 -2.375 28.09375 -2.65625 C 28.457031 -2.9375 28.835938 -3.226562 29.234375 -3.53125 C 29.640625 -3.832031 29.910156 -4.285156 30.046875 -4.890625 C 30.191406 -5.492188 30.023438 -6.378906 29.546875 -7.546875 L 28.390625 -10.578125 C 28.234375 -11.015625 28.050781 -11.363281 27.84375 -11.625 C 27.644531 -11.894531 27.273438 -12.078125 26.734375 -12.171875 C 26.191406 -12.273438 25.351562 -12.335938 24.21875 -12.359375 C 23.09375 -12.378906 21.503906 -12.390625 19.453125 -12.390625 C 17.316406 -12.390625 15.664062 -12.378906 14.5 -12.359375 C 13.332031 -12.335938 12.476562 -12.273438 11.9375 -12.171875 C 11.394531 -12.078125 11.019531 -11.90625 10.8125 -11.65625 C 10.613281 -11.414062 10.429688 -11.078125 10.265625 -10.640625 Z M 19.515625 -15.59375 C 21.804688 -15.59375 23.425781 -15.609375 24.375 -15.640625 C 25.320312 -15.679688 25.847656 -15.8125 25.953125 -16.03125 C 26.054688 -16.257812 26.003906 -16.632812 25.796875 -17.15625 L 19.28125 -33.78125 L 12.8125 -17.15625 C 12.601562 -16.632812 12.5625 -16.257812 12.6875 -16.03125 C 12.8125 -15.8125 13.375 -15.679688 14.375 -15.640625 C 15.382812 -15.609375 17.097656 -15.59375 19.515625 -15.59375 Z M 19.515625 -15.59375 "/></g></g></g><g fill="#0e2442" fill-opacity="1"><g transform="translate(122.139514, 323.536616)"><g><path d="M 23.015625 0.609375 C 18.867188 0.609375 15.242188 -0.242188 12.140625 -1.953125 C 9.046875 -3.671875 6.640625 -6.085938 4.921875 -9.203125 C 3.210938 -12.328125 2.359375 -15.988281 2.359375 -20.1875 C 2.359375 -23.363281 2.910156 -26.320312 4.015625 -29.0625 C 5.117188 -31.800781 6.65625 -34.207031 8.625 -36.28125 C 10.601562 -38.351562 12.921875 -39.972656 15.578125 -41.140625 C 18.242188 -42.316406 21.109375 -42.90625 24.171875 -42.90625 C 25.984375 -42.90625 27.460938 -42.742188 28.609375 -42.421875 C 29.753906 -42.097656 30.734375 -41.9375 31.546875 -41.9375 C 32.222656 -41.9375 32.765625 -42.078125 33.171875 -42.359375 C 33.578125 -42.640625 34.082031 -42.78125 34.6875 -42.78125 C 35.25 -42.78125 35.691406 -42.578125 36.015625 -42.171875 C 36.335938 -41.765625 36.695312 -40.921875 37.09375 -39.640625 C 37.375 -38.628906 37.664062 -37.5 37.96875 -36.25 C 38.269531 -35 38.5625 -33.46875 38.84375 -31.65625 C 38.96875 -30.976562 38.945312 -30.425781 38.78125 -30 C 38.625 -29.570312 38.265625 -29.320312 37.703125 -29.25 C 37.140625 -29.207031 36.675781 -29.40625 36.3125 -29.84375 C 35.945312 -30.289062 35.484375 -30.894531 34.921875 -31.65625 C 33.597656 -33.71875 32 -35.492188 30.125 -36.984375 C 28.25 -38.472656 25.859375 -39.21875 22.953125 -39.21875 C 20.179688 -39.21875 17.804688 -38.488281 15.828125 -37.03125 C 13.859375 -35.582031 12.335938 -33.671875 11.265625 -31.296875 C 10.203125 -28.921875 9.671875 -26.300781 9.671875 -23.4375 C 9.671875 -19.851562 10.3125 -16.582031 11.59375 -13.625 C 12.882812 -10.664062 14.707031 -8.316406 17.0625 -6.578125 C 19.425781 -4.847656 22.21875 -3.984375 25.4375 -3.984375 C 28.257812 -3.984375 30.632812 -4.515625 32.5625 -5.578125 C 34.5 -6.648438 36.234375 -8.015625 37.765625 -9.671875 C 38.203125 -10.148438 38.625 -10.328125 39.03125 -10.203125 C 39.4375 -10.085938 39.707031 -9.796875 39.84375 -9.328125 C 39.988281 -8.867188 39.878906 -8.316406 39.515625 -7.671875 C 38.867188 -6.460938 37.800781 -5.222656 36.3125 -3.953125 C 34.820312 -2.679688 32.957031 -1.601562 30.71875 -0.71875 C 28.488281 0.164062 25.921875 0.609375 23.015625 0.609375 Z M 23.015625 0.609375 "/></g></g></g><g fill="#0e2442" fill-opacity="1"><g transform="translate(163.94809, 323.536616)"><g><path d="M 33.953125 -11.65625 C 34.484375 -11.539062 34.804688 -11.28125 34.921875 -10.875 C 35.046875 -10.46875 35.085938 -9.925781 35.046875 -9.25 C 34.960938 -7.675781 34.835938 -6.34375 34.671875 -5.25 C 34.515625 -4.164062 34.316406 -3.179688 34.078125 -2.296875 C 33.878906 -1.523438 33.476562 -0.945312 32.875 -0.5625 C 32.269531 -0.1875 31.019531 0 29.125 0 L 5.375 0 C 4.25 0 3.429688 -0.0859375 2.921875 -0.265625 C 2.421875 -0.453125 2.171875 -0.847656 2.171875 -1.453125 C 2.171875 -2.140625 2.363281 -2.601562 2.75 -2.84375 C 3.132812 -3.082031 3.578125 -3.351562 4.078125 -3.65625 C 4.578125 -3.957031 5.019531 -4.507812 5.40625 -5.3125 C 5.789062 -6.125 5.984375 -7.4375 5.984375 -9.25 L 5.984375 -33.046875 C 5.984375 -34.859375 5.789062 -36.164062 5.40625 -36.96875 C 5.019531 -37.78125 4.578125 -38.335938 4.078125 -38.640625 C 3.578125 -38.941406 3.132812 -39.210938 2.75 -39.453125 C 2.363281 -39.691406 2.171875 -40.15625 2.171875 -40.84375 C 2.171875 -41.445312 2.421875 -41.835938 2.921875 -42.015625 C 3.429688 -42.203125 4.25 -42.296875 5.375 -42.296875 L 28.28125 -42.359375 C 30.050781 -42.359375 31.207031 -42.222656 31.75 -41.953125 C 32.289062 -41.691406 32.703125 -41.160156 32.984375 -40.359375 C 33.304688 -39.554688 33.597656 -38.628906 33.859375 -37.578125 C 34.128906 -36.535156 34.363281 -35.347656 34.5625 -34.015625 C 34.6875 -33.328125 34.707031 -32.757812 34.625 -32.3125 C 34.539062 -31.875 34.257812 -31.578125 33.78125 -31.421875 C 33.25 -31.253906 32.78125 -31.332031 32.375 -31.65625 C 31.976562 -31.976562 31.5625 -32.523438 31.125 -33.296875 C 29.988281 -35.179688 28.734375 -36.609375 27.359375 -37.578125 C 25.992188 -38.546875 24.285156 -39.03125 22.234375 -39.03125 L 19.15625 -39.03125 C 17.382812 -39.03125 16.054688 -38.925781 15.171875 -38.71875 C 14.285156 -38.519531 13.695312 -38.21875 13.40625 -37.8125 C 13.125 -37.414062 12.984375 -36.894531 12.984375 -36.25 L 12.984375 -29.546875 C 12.984375 -28.171875 13.363281 -27.332031 14.125 -27.03125 C 14.894531 -26.726562 15.945312 -26.578125 17.28125 -26.578125 L 18.421875 -26.578125 C 19.835938 -26.578125 20.90625 -26.675781 21.625 -26.875 C 22.351562 -27.082031 22.898438 -27.316406 23.265625 -27.578125 C 23.628906 -27.835938 23.929688 -28.066406 24.171875 -28.265625 C 24.410156 -28.472656 24.769531 -28.578125 25.25 -28.578125 C 26.101562 -28.578125 26.671875 -27.953125 26.953125 -26.703125 L 28.28125 -20.71875 C 28.519531 -19.59375 28.578125 -18.847656 28.453125 -18.484375 C 28.335938 -18.128906 28.015625 -17.867188 27.484375 -17.703125 C 26.878906 -17.546875 26.347656 -17.738281 25.890625 -18.28125 C 25.429688 -18.820312 24.914062 -19.484375 24.34375 -20.265625 C 23.78125 -21.054688 23.046875 -21.773438 22.140625 -22.421875 C 21.234375 -23.066406 19.992188 -23.390625 18.421875 -23.390625 L 17.28125 -23.390625 C 15.945312 -23.390625 14.894531 -23.238281 14.125 -22.9375 C 13.363281 -22.632812 12.984375 -21.796875 12.984375 -20.421875 L 12.984375 -6.15625 C 12.984375 -5.476562 13.132812 -4.925781 13.4375 -4.5 C 13.738281 -4.070312 14.34375 -3.757812 15.25 -3.5625 C 16.15625 -3.363281 17.515625 -3.265625 19.328125 -3.265625 L 23.6875 -3.328125 C 25.257812 -3.328125 26.5 -3.546875 27.40625 -3.984375 C 28.3125 -4.429688 29.046875 -5.097656 29.609375 -5.984375 C 30.171875 -6.867188 30.753906 -7.976562 31.359375 -9.3125 C 31.835938 -10.351562 32.28125 -11.023438 32.6875 -11.328125 C 33.09375 -11.628906 33.515625 -11.738281 33.953125 -11.65625 Z M 33.953125 -11.65625 "/></g></g></g><g fill="#0e2442" fill-opacity="1"><g transform="translate(201.164972, 323.536616)"><g><path d="M 28.765625 -17.28125 L 34.4375 -7.015625 C 35 -6.003906 35.570312 -5.234375 36.15625 -4.703125 C 36.738281 -4.179688 37.257812 -3.789062 37.71875 -3.53125 C 38.1875 -3.269531 38.5625 -3 38.84375 -2.71875 C 39.132812 -2.4375 39.28125 -2.015625 39.28125 -1.453125 C 39.28125 -0.484375 38.375 0 36.5625 0 L 28.828125 0 C 27.859375 0 27.117188 -0.109375 26.609375 -0.328125 C 26.109375 -0.554688 25.859375 -0.972656 25.859375 -1.578125 C 25.859375 -2.015625 26 -2.394531 26.28125 -2.71875 C 26.5625 -3.039062 26.851562 -3.382812 27.15625 -3.75 C 27.457031 -4.113281 27.617188 -4.566406 27.640625 -5.109375 C 27.660156 -5.648438 27.429688 -6.363281 26.953125 -7.25 L 23.265625 -14.015625 C 22.742188 -14.941406 22.140625 -15.566406 21.453125 -15.890625 C 20.765625 -16.210938 19.597656 -16.472656 17.953125 -16.671875 C 16.335938 -16.878906 15.101562 -16.953125 14.25 -16.890625 C 13.40625 -16.828125 12.984375 -16.289062 12.984375 -15.28125 L 12.984375 -9.421875 C 12.984375 -7.648438 13.164062 -6.351562 13.53125 -5.53125 C 13.894531 -4.707031 14.328125 -4.125 14.828125 -3.78125 C 15.335938 -3.4375 15.769531 -3.125 16.125 -2.84375 C 16.488281 -2.5625 16.671875 -2.097656 16.671875 -1.453125 C 16.671875 -0.929688 16.425781 -0.554688 15.9375 -0.328125 C 15.457031 -0.109375 14.632812 0 13.46875 0 L 5.375 0 C 3.238281 0 2.171875 -0.484375 2.171875 -1.453125 C 2.171875 -2.097656 2.363281 -2.5625 2.75 -2.84375 C 3.132812 -3.125 3.578125 -3.4375 4.078125 -3.78125 C 4.578125 -4.125 5.019531 -4.707031 5.40625 -5.53125 C 5.789062 -6.351562 5.984375 -7.648438 5.984375 -9.421875 L 5.984375 -33.046875 C 5.984375 -34.859375 5.789062 -36.164062 5.40625 -36.96875 C 5.019531 -37.78125 4.578125 -38.335938 4.078125 -38.640625 C 3.578125 -38.941406 3.132812 -39.210938 2.75 -39.453125 C 2.363281 -39.691406 2.171875 -40.15625 2.171875 -40.84375 C 2.171875 -41.445312 2.421875 -41.835938 2.921875 -42.015625 C 3.429688 -42.203125 4.25 -42.296875 5.375 -42.296875 L 17.46875 -42.296875 C 21.851562 -42.296875 25.472656 -41.660156 28.328125 -40.390625 C 31.191406 -39.117188 33.316406 -37.46875 34.703125 -35.4375 C 36.097656 -33.40625 36.796875 -31.203125 36.796875 -28.828125 C 36.796875 -26.003906 36.109375 -23.613281 34.734375 -21.65625 C 33.367188 -19.707031 31.378906 -18.25 28.765625 -17.28125 Z M 20.484375 -19.640625 C 23.335938 -19.472656 25.539062 -20.164062 27.09375 -21.71875 C 28.644531 -23.269531 29.421875 -25.375 29.421875 -28.03125 C 29.421875 -30.050781 28.9375 -31.894531 27.96875 -33.5625 C 27.007812 -35.238281 25.625 -36.585938 23.8125 -37.609375 C 22 -38.640625 19.820312 -39.15625 17.28125 -39.15625 C 15.46875 -39.15625 14.296875 -39.039062 13.765625 -38.8125 C 13.242188 -38.59375 12.984375 -38.160156 12.984375 -37.515625 L 12.984375 -22.59375 C 12.984375 -21.832031 13.425781 -21.25 14.3125 -20.84375 C 15.207031 -20.4375 16.238281 -20.144531 17.40625 -19.96875 C 18.570312 -19.789062 19.597656 -19.679688 20.484375 -19.640625 Z M 20.484375 -19.640625 "/></g></g></g><g fill="#0e2442" fill-opacity="1"><g transform="translate(241.825625, 323.536616)"><g><path d="M 5.375 -42.296875 L 18.796875 -42.296875 C 23.066406 -42.296875 26.703125 -41.703125 29.703125 -40.515625 C 32.703125 -39.328125 35.144531 -37.734375 37.03125 -35.734375 C 38.925781 -33.742188 40.316406 -31.539062 41.203125 -29.125 C 42.085938 -26.707031 42.53125 -24.289062 42.53125 -21.875 C 42.53125 -18.96875 42.085938 -16.207031 41.203125 -13.59375 C 40.316406 -10.976562 38.976562 -8.640625 37.1875 -6.578125 C 35.394531 -4.523438 33.109375 -2.914062 30.328125 -1.75 C 27.546875 -0.582031 24.242188 0 20.421875 0 L 5.375 0 C 4.25 0 3.429688 -0.0859375 2.921875 -0.265625 C 2.421875 -0.453125 2.171875 -0.847656 2.171875 -1.453125 C 2.171875 -2.140625 2.363281 -2.601562 2.75 -2.84375 C 3.132812 -3.082031 3.578125 -3.351562 4.078125 -3.65625 C 4.578125 -3.957031 5.019531 -4.507812 5.40625 -5.3125 C 5.789062 -6.125 5.984375 -7.4375 5.984375 -9.25 L 5.984375 -33.046875 C 5.984375 -34.859375 5.789062 -36.164062 5.40625 -36.96875 C 5.019531 -37.78125 4.578125 -38.335938 4.078125 -38.640625 C 3.578125 -38.941406 3.132812 -39.210938 2.75 -39.453125 C 2.363281 -39.691406 2.171875 -40.15625 2.171875 -40.84375 C 2.171875 -41.445312 2.421875 -41.835938 2.921875 -42.015625 C 3.429688 -42.203125 4.25 -42.296875 5.375 -42.296875 Z M 19.703125 -3.140625 C 23.648438 -3.140625 26.738281 -3.851562 28.96875 -5.28125 C 31.207031 -6.71875 32.789062 -8.625 33.71875 -11 C 34.644531 -13.375 35.109375 -15.953125 35.109375 -18.734375 C 35.109375 -22.597656 34.367188 -26.082031 32.890625 -29.1875 C 31.421875 -32.289062 29.316406 -34.75 26.578125 -36.5625 C 23.847656 -38.375 20.585938 -39.28125 16.796875 -39.28125 C 15.347656 -39.28125 14.347656 -39.117188 13.796875 -38.796875 C 13.253906 -38.472656 12.984375 -37.742188 12.984375 -36.609375 L 12.984375 -6.765625 C 12.984375 -5.960938 13.144531 -5.285156 13.46875 -4.734375 C 13.789062 -4.191406 14.4375 -3.789062 15.40625 -3.53125 C 16.375 -3.269531 17.804688 -3.140625 19.703125 -3.140625 Z M 19.703125 -3.140625 "/></g></g></g><g fill="#0e2442" fill-opacity="1"><g transform="translate(286.836312, 323.536616)"><g><path d="M 10.265625 -10.640625 L 9 -7.4375 C 8.519531 -6.226562 8.328125 -5.320312 8.421875 -4.71875 C 8.523438 -4.113281 8.738281 -3.664062 9.0625 -3.375 C 9.382812 -3.09375 9.707031 -2.820312 10.03125 -2.5625 C 10.351562 -2.300781 10.515625 -1.929688 10.515625 -1.453125 C 10.515625 -0.890625 10.269531 -0.503906 9.78125 -0.296875 C 9.300781 -0.0976562 8.71875 0 8.03125 0 L 2.84375 0 C 2 0 1.320312 -0.0976562 0.8125 -0.296875 C 0.3125 -0.503906 0.0625 -0.867188 0.0625 -1.390625 C 0.0625 -1.910156 0.234375 -2.300781 0.578125 -2.5625 C 0.921875 -2.820312 1.351562 -3.09375 1.875 -3.375 C 2.394531 -3.664062 2.9375 -4.113281 3.5 -4.71875 C 4.0625 -5.320312 4.585938 -6.226562 5.078125 -7.4375 L 16.1875 -35.46875 C 16.550781 -36.394531 16.648438 -37.097656 16.484375 -37.578125 C 16.328125 -38.066406 16.066406 -38.453125 15.703125 -38.734375 C 15.347656 -39.015625 15 -39.304688 14.65625 -39.609375 C 14.3125 -39.910156 14.140625 -40.320312 14.140625 -40.84375 C 14.140625 -41.8125 14.742188 -42.296875 15.953125 -42.296875 L 22.109375 -42.296875 C 23.035156 -42.296875 23.679688 -41.851562 24.046875 -40.96875 L 37.21875 -7.546875 C 37.695312 -6.296875 38.195312 -5.367188 38.71875 -4.765625 C 39.25 -4.160156 39.734375 -3.71875 40.171875 -3.4375 C 40.617188 -3.15625 40.984375 -2.894531 41.265625 -2.65625 C 41.546875 -2.414062 41.6875 -2.035156 41.6875 -1.515625 C 41.6875 -0.953125 41.453125 -0.554688 40.984375 -0.328125 C 40.523438 -0.109375 39.734375 0 38.609375 0 L 30.21875 0 C 28.4375 0 27.546875 -0.460938 27.546875 -1.390625 C 27.546875 -1.953125 27.726562 -2.375 28.09375 -2.65625 C 28.457031 -2.9375 28.835938 -3.226562 29.234375 -3.53125 C 29.640625 -3.832031 29.910156 -4.285156 30.046875 -4.890625 C 30.191406 -5.492188 30.023438 -6.378906 29.546875 -7.546875 L 28.390625 -10.578125 C 28.234375 -11.015625 28.050781 -11.363281 27.84375 -11.625 C 27.644531 -11.894531 27.273438 -12.078125 26.734375 -12.171875 C 26.191406 -12.273438 25.351562 -12.335938 24.21875 -12.359375 C 23.09375 -12.378906 21.503906 -12.390625 19.453125 -12.390625 C 17.316406 -12.390625 15.664062 -12.378906 14.5 -12.359375 C 13.332031 -12.335938 12.476562 -12.273438 11.9375 -12.171875 C 11.394531 -12.078125 11.019531 -11.90625 10.8125 -11.65625 C 10.613281 -11.414062 10.429688 -11.078125 10.265625 -10.640625 Z M 19.515625 -15.59375 C 21.804688 -15.59375 23.425781 -15.609375 24.375 -15.640625 C 25.320312 -15.679688 25.847656 -15.8125 25.953125 -16.03125 C 26.054688 -16.257812 26.003906 -16.632812 25.796875 -17.15625 L 19.28125 -33.78125 L 12.8125 -17.15625 C 12.601562 -16.632812 12.5625 -16.257812 12.6875 -16.03125 C 12.8125 -15.8125 13.375 -15.679688 14.375 -15.640625 C 15.382812 -15.609375 17.097656 -15.59375 19.515625 -15.59375 Z M 19.515625 -15.59375 "/></g></g></g><g fill="#0e2442" fill-opacity="1"><g transform="translate(64.409652, 354.673988)"><g><path d="M 1.921875 0 L 1.921875 -12.703125 L 6.53125 -12.703125 C 7.382812 -12.703125 8.097656 -12.5625 8.671875 -12.28125 C 9.253906 -12 9.691406 -11.601562 9.984375 -11.09375 C 10.273438 -10.582031 10.421875 -9.972656 10.421875 -9.265625 C 10.421875 -8.484375 10.222656 -7.832031 9.828125 -7.3125 C 9.429688 -6.800781 8.816406 -6.421875 7.984375 -6.171875 L 7.984375 -5.984375 C 8.398438 -5.828125 8.738281 -5.570312 9 -5.21875 C 9.257812 -4.875 9.5 -4.359375 9.71875 -3.671875 L 10.890625 0 L 9.34375 0 L 8.078125 -3.890625 C 7.929688 -4.347656 7.757812 -4.707031 7.5625 -4.96875 C 7.363281 -5.226562 7.113281 -5.414062 6.8125 -5.53125 C 6.507812 -5.644531 6.128906 -5.703125 5.671875 -5.703125 L 3.421875 -5.703125 L 3.421875 0 Z M 6.5 -6.96875 C 7.289062 -6.96875 7.878906 -7.148438 8.265625 -7.515625 C 8.660156 -7.890625 8.859375 -8.453125 8.859375 -9.203125 C 8.859375 -9.953125 8.660156 -10.507812 8.265625 -10.875 C 7.878906 -11.25 7.289062 -11.4375 6.5 -11.4375 L 3.421875 -11.4375 L 3.421875 -6.96875 Z M 6.5 -6.96875 "/></g></g></g><g fill="#0e2442" fill-opacity="1"><g transform="translate(80.144759, 354.673988)"><g><path d="M 3.421875 -5.984375 L 3.421875 -1.234375 L 9.890625 -1.234375 L 9.890625 0 L 1.921875 0 L 1.921875 -12.703125 L 9.75 -12.703125 L 9.75 -11.46875 L 3.421875 -11.46875 L 3.421875 -7.21875 L 9 -7.21875 L 9 -5.984375 Z M 3.421875 -5.984375 "/></g></g></g><g fill="#0e2442" fill-opacity="1"><g transform="translate(94.846064, 354.673988)"><g><path d="M 9.390625 -12.703125 L 9.390625 -11.46875 L 3.421875 -11.46875 L 3.421875 -6.84375 L 8.78125 -6.84375 L 8.78125 -5.609375 L 3.421875 -5.609375 L 3.421875 0 L 1.921875 0 L 1.921875 -12.703125 Z M 9.390625 -12.703125 "/></g></g></g><g fill="#0e2442" fill-opacity="1"><g transform="translate(108.887124, 354.673988)"><g><path d="M 6.96875 0.1875 C 5.863281 0.1875 4.882812 -0.0507812 4.03125 -0.53125 C 3.175781 -1.007812 2.5 -1.734375 2 -2.703125 C 1.507812 -3.679688 1.265625 -4.898438 1.265625 -6.359375 C 1.265625 -7.804688 1.507812 -9.019531 2 -10 C 2.5 -10.976562 3.175781 -11.703125 4.03125 -12.171875 C 4.882812 -12.648438 5.863281 -12.890625 6.96875 -12.890625 C 8.070312 -12.890625 9.050781 -12.648438 9.90625 -12.171875 C 10.757812 -11.703125 11.429688 -10.976562 11.921875 -10 C 12.421875 -9.019531 12.671875 -7.804688 12.671875 -6.359375 C 12.671875 -4.898438 12.421875 -3.679688 11.921875 -2.703125 C 11.429688 -1.734375 10.757812 -1.007812 9.90625 -0.53125 C 9.050781 -0.0507812 8.070312 0.1875 6.96875 0.1875 Z M 6.96875 -1.203125 C 8.289062 -1.203125 9.304688 -1.613281 10.015625 -2.4375 C 10.722656 -3.257812 11.078125 -4.566406 11.078125 -6.359375 C 11.078125 -8.140625 10.722656 -9.441406 10.015625 -10.265625 C 9.304688 -11.085938 8.289062 -11.5 6.96875 -11.5 C 4.238281 -11.5 2.875 -9.785156 2.875 -6.359375 C 2.875 -2.921875 4.238281 -1.203125 6.96875 -1.203125 Z M 6.96875 -1.203125 "/></g></g></g><g fill="#0e2442" fill-opacity="1"><g transform="translate(126.794086, 354.673988)"><g><path d="M 1.921875 0 L 1.921875 -12.703125 L 6.53125 -12.703125 C 7.382812 -12.703125 8.097656 -12.5625 8.671875 -12.28125 C 9.253906 -12 9.691406 -11.601562 9.984375 -11.09375 C 10.273438 -10.582031 10.421875 -9.972656 10.421875 -9.265625 C 10.421875 -8.484375 10.222656 -7.832031 9.828125 -7.3125 C 9.429688 -6.800781 8.816406 -6.421875 7.984375 -6.171875 L 7.984375 -5.984375 C 8.398438 -5.828125 8.738281 -5.570312 9 -5.21875 C 9.257812 -4.875 9.5 -4.359375 9.71875 -3.671875 L 10.890625 0 L 9.34375 0 L 8.078125 -3.890625 C 7.929688 -4.347656 7.757812 -4.707031 7.5625 -4.96875 C 7.363281 -5.226562 7.113281 -5.414062 6.8125 -5.53125 C 6.507812 -5.644531 6.128906 -5.703125 5.671875 -5.703125 L 3.421875 -5.703125 L 3.421875 0 Z M 6.5 -6.96875 C 7.289062 -6.96875 7.878906 -7.148438 8.265625 -7.515625 C 8.660156 -7.890625 8.859375 -8.453125 8.859375 -9.203125 C 8.859375 -9.953125 8.660156 -10.507812 8.265625 -10.875 C 7.878906 -11.25 7.289062 -11.4375 6.5 -11.4375 L 3.421875 -11.4375 L 3.421875 -6.96875 Z M 6.5 -6.96875 "/></g></g></g><g fill="#0e2442" fill-opacity="1"><g transform="translate(142.529195, 354.673988)"><g><path d="M 3.296875 0 L 1.921875 0 L 1.921875 -12.703125 L 4.140625 -12.703125 L 7.984375 -1.953125 L 8.171875 -1.953125 L 12.015625 -12.703125 L 14.15625 -12.703125 L 14.15625 0 L 12.734375 0 L 12.734375 -10.359375 L 12.515625 -10.40625 L 8.765625 0 L 7.28125 0 L 3.515625 -10.40625 L 3.296875 -10.359375 Z M 3.296875 0 "/></g></g></g><g fill="#0e2442" fill-opacity="1"><g transform="translate(162.581943, 354.673988)"><g><path d="M 11.4375 0 L 9.84375 0 L 8.65625 -3.484375 L 3.25 -3.484375 L 2.0625 0 L 0.5 0 L 4.9375 -12.703125 L 7 -12.703125 Z M 5.84375 -11.171875 L 3.671875 -4.734375 L 8.234375 -4.734375 L 6.0625 -11.171875 Z M 5.84375 -11.171875 "/></g></g></g><g fill="#0e2442" fill-opacity="1"><g transform="translate(178.490795, 354.673988)"><g><path d="M 5.546875 0.1875 C 4.753906 0.1875 4.039062 0.078125 3.40625 -0.140625 C 2.769531 -0.359375 2.238281 -0.644531 1.8125 -1 C 1.394531 -1.351562 1.082031 -1.738281 0.875 -2.15625 L 1.6875 -3.15625 L 1.90625 -3.15625 C 2.6875 -1.832031 3.898438 -1.171875 5.546875 -1.171875 C 6.503906 -1.171875 7.21875 -1.367188 7.6875 -1.765625 C 8.15625 -2.160156 8.390625 -2.71875 8.390625 -3.4375 C 8.390625 -3.851562 8.3125 -4.203125 8.15625 -4.484375 C 8 -4.773438 7.742188 -5.023438 7.390625 -5.234375 C 7.035156 -5.441406 6.554688 -5.617188 5.953125 -5.765625 L 4.46875 -6.140625 C 3.363281 -6.398438 2.546875 -6.820312 2.015625 -7.40625 C 1.492188 -7.988281 1.234375 -8.726562 1.234375 -9.625 C 1.234375 -10.25 1.394531 -10.804688 1.71875 -11.296875 C 2.039062 -11.796875 2.515625 -12.1875 3.140625 -12.46875 C 3.765625 -12.75 4.515625 -12.890625 5.390625 -12.890625 C 6.347656 -12.890625 7.15625 -12.753906 7.8125 -12.484375 C 8.46875 -12.210938 8.992188 -11.804688 9.390625 -11.265625 L 8.65625 -10.28125 L 8.4375 -10.28125 C 8.070312 -10.726562 7.640625 -11.054688 7.140625 -11.265625 C 6.640625 -11.472656 6.054688 -11.578125 5.390625 -11.578125 C 4.503906 -11.578125 3.835938 -11.40625 3.390625 -11.0625 C 2.941406 -10.726562 2.71875 -10.257812 2.71875 -9.65625 C 2.71875 -9.082031 2.878906 -8.625 3.203125 -8.28125 C 3.535156 -7.945312 4.097656 -7.6875 4.890625 -7.5 L 6.40625 -7.140625 C 7.632812 -6.847656 8.523438 -6.398438 9.078125 -5.796875 C 9.640625 -5.203125 9.921875 -4.4375 9.921875 -3.5 C 9.921875 -2.78125 9.757812 -2.144531 9.4375 -1.59375 C 9.113281 -1.039062 8.625 -0.601562 7.96875 -0.28125 C 7.3125 0.03125 6.503906 0.1875 5.546875 0.1875 Z M 5.546875 0.1875 "/></g></g></g><g fill="#0e2442" fill-opacity="1"><g transform="translate(193.348469, 354.673988)"><g/></g></g><g fill="#0e2442" fill-opacity="1"><g transform="translate(201.681894, 354.673988)"><g><path d="M 6.46875 -12.703125 C 7.34375 -12.703125 8.09375 -12.546875 8.71875 -12.234375 C 9.34375 -11.921875 9.816406 -11.472656 10.140625 -10.890625 C 10.472656 -10.304688 10.640625 -9.625 10.640625 -8.84375 C 10.640625 -8.050781 10.472656 -7.363281 10.140625 -6.78125 C 9.816406 -6.207031 9.34375 -5.757812 8.71875 -5.4375 C 8.09375 -5.125 7.34375 -4.96875 6.46875 -4.96875 L 3.421875 -4.96875 L 3.421875 0 L 1.921875 0 L 1.921875 -12.703125 Z M 6.421875 -6.25 C 8.191406 -6.25 9.078125 -7.113281 9.078125 -8.84375 C 9.078125 -10.570312 8.191406 -11.4375 6.421875 -11.4375 L 3.421875 -11.4375 L 3.421875 -6.25 Z M 6.421875 -6.25 "/></g></g></g><g fill="#0e2442" fill-opacity="1"><g transform="translate(217.234561, 354.673988)"><g><path d="M 1.921875 0 L 1.921875 -12.703125 L 6.53125 -12.703125 C 7.382812 -12.703125 8.097656 -12.5625 8.671875 -12.28125 C 9.253906 -12 9.691406 -11.601562 9.984375 -11.09375 C 10.273438 -10.582031 10.421875 -9.972656 10.421875 -9.265625 C 10.421875 -8.484375 10.222656 -7.832031 9.828125 -7.3125 C 9.429688 -6.800781 8.816406 -6.421875 7.984375 -6.171875 L 7.984375 -5.984375 C 8.398438 -5.828125 8.738281 -5.570312 9 -5.21875 C 9.257812 -4.875 9.5 -4.359375 9.71875 -3.671875 L 10.890625 0 L 9.34375 0 L 8.078125 -3.890625 C 7.929688 -4.347656 7.757812 -4.707031 7.5625 -4.96875 C 7.363281 -5.226562 7.113281 -5.414062 6.8125 -5.53125 C 6.507812 -5.644531 6.128906 -5.703125 5.671875 -5.703125 L 3.421875 -5.703125 L 3.421875 0 Z M 6.5 -6.96875 C 7.289062 -6.96875 7.878906 -7.148438 8.265625 -7.515625 C 8.660156 -7.890625 8.859375 -8.453125 8.859375 -9.203125 C 8.859375 -9.953125 8.660156 -10.507812 8.265625 -10.875 C 7.878906 -11.25 7.289062 -11.4375 6.5 -11.4375 L 3.421875 -11.4375 L 3.421875 -6.96875 Z M 6.5 -6.96875 "/></g></g></g><g fill="#0e2442" fill-opacity="1"><g transform="translate(232.969664, 354.673988)"><g><path d="M 3.421875 -5.984375 L 3.421875 -1.234375 L 9.890625 -1.234375 L 9.890625 0 L 1.921875 0 L 1.921875 -12.703125 L 9.75 -12.703125 L 9.75 -11.46875 L 3.421875 -11.46875 L 3.421875 -7.21875 L 9 -7.21875 L 9 -5.984375 Z M 3.421875 -5.984375 "/></g></g></g><g fill="#0e2442" fill-opacity="1"><g transform="translate(247.670965, 354.673988)"><g><path d="M 6.03125 -12.703125 C 7.3125 -12.703125 8.414062 -12.472656 9.34375 -12.015625 C 10.269531 -11.554688 10.984375 -10.851562 11.484375 -9.90625 C 11.984375 -8.957031 12.234375 -7.773438 12.234375 -6.359375 C 12.234375 -4.929688 11.984375 -3.742188 11.484375 -2.796875 C 10.984375 -1.847656 10.269531 -1.144531 9.34375 -0.6875 C 8.414062 -0.226562 7.3125 0 6.03125 0 L 1.921875 0 L 1.921875 -12.703125 Z M 5.890625 -1.265625 C 6.941406 -1.265625 7.816406 -1.429688 8.515625 -1.765625 C 9.210938 -2.097656 9.738281 -2.632812 10.09375 -3.375 C 10.457031 -4.125 10.640625 -5.117188 10.640625 -6.359375 C 10.640625 -7.597656 10.457031 -8.585938 10.09375 -9.328125 C 9.738281 -10.066406 9.210938 -10.601562 8.515625 -10.9375 C 7.816406 -11.269531 6.941406 -11.4375 5.890625 -11.4375 L 3.421875 -11.4375 L 3.421875 -1.265625 Z M 5.890625 -1.265625 "/></g></g></g><g fill="#0e2442" fill-opacity="1"><g transform="translate(265.143562, 354.673988)"><g><path d="M 3.421875 0 L 1.921875 0 L 1.921875 -12.703125 L 3.421875 -12.703125 Z M 3.421875 0 "/></g></g></g><g fill="#0e2442" fill-opacity="1"><g transform="translate(274.458677, 354.673988)"><g><path d="M 11.4375 0 L 9.84375 0 L 8.65625 -3.484375 L 3.25 -3.484375 L 2.0625 0 L 0.5 0 L 4.9375 -12.703125 L 7 -12.703125 Z M 5.84375 -11.171875 L 3.671875 -4.734375 L 8.234375 -4.734375 L 6.0625 -11.171875 Z M 5.84375 -11.171875 "/></g></g></g><g fill="#0e2442" fill-opacity="1"><g transform="translate(290.367539, 354.673988)"><g><path d="M 3.421875 0 L 1.921875 0 L 1.921875 -12.703125 L 3.421875 -12.703125 Z M 3.421875 0 "/></g></g></g><g fill="#0e2442" fill-opacity="1"><g transform="translate(299.682653, 354.673988)"><g><path d="M 5.546875 0.1875 C 4.753906 0.1875 4.039062 0.078125 3.40625 -0.140625 C 2.769531 -0.359375 2.238281 -0.644531 1.8125 -1 C 1.394531 -1.351562 1.082031 -1.738281 0.875 -2.15625 L 1.6875 -3.15625 L 1.90625 -3.15625 C 2.6875 -1.832031 3.898438 -1.171875 5.546875 -1.171875 C 6.503906 -1.171875 7.21875 -1.367188 7.6875 -1.765625 C 8.15625 -2.160156 8.390625 -2.71875 8.390625 -3.4375 C 8.390625 -3.851562 8.3125 -4.203125 8.15625 -4.484375 C 8 -4.773438 7.742188 -5.023438 7.390625 -5.234375 C 7.035156 -5.441406 6.554688 -5.617188 5.953125 -5.765625 L 4.46875 -6.140625 C 3.363281 -6.398438 2.546875 -6.820312 2.015625 -7.40625 C 1.492188 -7.988281 1.234375 -8.726562 1.234375 -9.625 C 1.234375 -10.25 1.394531 -10.804688 1.71875 -11.296875 C 2.039062 -11.796875 2.515625 -12.1875 3.140625 -12.46875 C 3.765625 -12.75 4.515625 -12.890625 5.390625 -12.890625 C 6.347656 -12.890625 7.15625 -12.753906 7.8125 -12.484375 C 8.46875 -12.210938 8.992188 -11.804688 9.390625 -11.265625 L 8.65625 -10.28125 L 8.4375 -10.28125 C 8.070312 -10.726562 7.640625 -11.054688 7.140625 -11.265625 C 6.640625 -11.472656 6.054688 -11.578125 5.390625 -11.578125 C 4.503906 -11.578125 3.835938 -11.40625 3.390625 -11.0625 C 2.941406 -10.726562 2.71875 -10.257812 2.71875 -9.65625 C 2.71875 -9.082031 2.878906 -8.625 3.203125 -8.28125 C 3.535156 -7.945312 4.097656 -7.6875 4.890625 -7.5 L 6.40625 -7.140625 C 7.632812 -6.847656 8.523438 -6.398438 9.078125 -5.796875 C 9.640625 -5.203125 9.921875 -4.4375 9.921875 -3.5 C 9.921875 -2.78125 9.757812 -2.144531 9.4375 -1.59375 C 9.113281 -1.039062 8.625 -0.601562 7.96875 -0.28125 C 7.3125 0.03125 6.503906 0.1875 5.546875 0.1875 Z M 5.546875 0.1875 "/></g></g></g></svg>